<?xml version="1.0" encoding="UTF-8"?><svg id="b" xmlns="http://www.w3.org/2000/svg" width="345" height="439.67" viewBox="0 0 345 439.67"><g id="c"><path d="M332,13.01V308.95c0,1.39-.22,2.73-.65,3.99v.03s-.02,.03-.02,.03c-1.72,5.1-6.51,8.53-11.9,8.53-18.31,0-36.35,2.79-53.63,8.29-26.1,8.3-49.9,22.6-69.55,41.71-19.65-19.1-43.45-33.41-69.55-41.71-17.28-5.5-35.33-8.29-53.63-8.29-5.4,0-10.18-3.43-11.9-8.53v-.03s-.02-.03-.02-.03c-.43-1.26-.65-2.6-.65-3.99V13.01H332M345,0H47.5V308.95c0,2.87,.47,5.63,1.35,8.2,3.41,10.1,12.97,17.37,24.22,17.37,17.32,0,34.02,2.69,49.69,7.68,28.75,9.14,54.06,26.02,73.49,48.18,19.43-22.16,44.74-39.04,73.49-48.18,15.67-4.99,32.37-7.68,49.69-7.68,11.25,0,20.81-7.27,24.22-17.37,.88-2.57,1.35-5.33,1.35-8.2V0h0Z" fill="#039"/><polygon points="337.26 8.02 337.26 332.85 1 332.85 1 49.3 7.36 49.3 21.15 34.78 46.55 8.02 337.26 8.02" fill="#fff" stroke="#039" stroke-miterlimit="10" stroke-width="2"/><polygon points="323.71 21.4 323.71 346.23 1 346.23 1 49.3 7.36 49.3 21.15 34.78 33.85 21.4 323.71 21.4" fill="#fff" stroke="#039" stroke-miterlimit="10" stroke-width="2"/><path d="M310.15,34.78V359.61H1.04c-.03-.45-.04-.91-.04-1.37V49.3H7.36l13.79-14.52H310.15Z" fill="#fff" stroke="#039" stroke-miterlimit="10" stroke-width="2"/><path d="M298.5,49.3V358.24c0,.46-.01,.92-.04,1.37-.12,2.38-.57,4.67-1.31,6.83-3.41,10.1-12.97,17.37-24.22,17.37-17.32,0-34.02,2.69-49.69,7.68-28.75,9.14-54.06,26.02-73.49,48.18-19.43-22.16-44.74-39.04-73.49-48.18-15.67-4.99-32.37-7.68-49.69-7.68-11.25,0-20.81-7.27-24.22-17.37-.74-2.16-1.19-4.45-1.31-6.83-.03-.45-.04-.91-.04-1.37V49.3H298.5Z" fill="#039"/><g><path d="M99.5,106.77v50.12c0,.47-.08,.91-.22,1.33-.55,1.64-2.1,2.82-3.93,2.82-2.81,0-5.52,.44-8.06,1.25-4.66,1.48-8.77,4.22-11.92,7.82-3.15-3.6-7.26-6.33-11.92-7.82-2.54-.81-5.25-1.25-8.06-1.25-1.83,0-3.38-1.18-3.93-2.82-.14-.42-.22-.86-.22-1.33v-50.12h48.26Z" fill="#fff"/><path d="M248.25,106.77v50.12c0,.47-.08,.91-.22,1.33-.55,1.64-2.1,2.82-3.93,2.82-2.81,0-5.52,.44-8.06,1.25-4.66,1.48-8.77,4.22-11.92,7.82-3.15-3.6-7.26-6.33-11.92-7.82-2.54-.81-5.25-1.25-8.06-1.25-1.83,0-3.38-1.18-3.93-2.82-.14-.42-.22-.86-.22-1.33v-50.12h48.26Z" fill="#fff"/></g><g><path d="M99.5,273.09v50.12c0,.47-.08,.91-.22,1.33-.55,1.64-2.1,2.82-3.93,2.82-2.81,0-5.52,.44-8.06,1.25-4.66,1.48-8.77,4.22-11.92,7.82-3.15-3.6-7.26-6.33-11.92-7.82-2.54-.81-5.25-1.25-8.06-1.25-1.83,0-3.38-1.18-3.93-2.82-.14-.42-.22-.86-.22-1.33v-50.12h48.26Z" fill="#fff"/><path d="M248.25,273.09v50.12c0,.47-.08,.91-.22,1.33-.55,1.64-2.1,2.82-3.93,2.82-2.81,0-5.52,.44-8.06,1.25-4.66,1.48-8.77,4.22-11.92,7.82-3.15-3.6-7.26-6.33-11.92-7.82-2.54-.81-5.25-1.25-8.06-1.25-1.83,0-3.38-1.18-3.93-2.82-.14-.42-.22-.86-.22-1.33v-50.12h48.26Z" fill="#fff"/></g><path d="M173.88,189.93v50.12c0,.47-.08,.91-.22,1.33-.55,1.64-2.1,2.82-3.93,2.82-2.81,0-5.52,.44-8.06,1.25-4.66,1.48-8.77,4.22-11.92,7.82-3.15-3.6-7.26-6.33-11.92-7.82-2.54-.81-5.25-1.25-8.06-1.25-1.83,0-3.38-1.18-3.93-2.82-.14-.42-.22-.86-.22-1.33v-50.12h48.26Z" fill="#fff"/><polyline points="50.71 3.15 46.91 7.02 45.94 8.01 33.04 21.15 20.13 34.3 6.11 48.56 3.27 51.45" fill="none" stroke="#039" stroke-miterlimit="10" stroke-width="9"/><line x1="19.6" y1="44.77" x2="52.97" y2="10.7" fill="none" stroke="#fff" stroke-miterlimit="10" stroke-width="5"/></g></svg>